<?xml version="1.0" encoding="UTF-8" standalone="no"?>
<!-- Created with Inkscape (http://www.inkscape.org/) -->

<svg
   width="512"
   height="512"
   viewBox="0 0 512 512"
   version="1.1"
   id="svg5"
   sodipodi:docname="ruedaCarga.svg"
   inkscape:version="1.2.2 (1:1.2.2+202212051550+b0a8486541)"
   xmlns:inkscape="http://www.inkscape.org/namespaces/inkscape"
   xmlns:sodipodi="http://sodipodi.sourceforge.net/DTD/sodipodi-0.dtd"
   xmlns:xlink="http://www.w3.org/1999/xlink"
   xmlns="http://www.w3.org/2000/svg"
   xmlns:svg="http://www.w3.org/2000/svg">
  <sodipodi:namedview
     id="namedview10"
     pagecolor="#ffffff"
     bordercolor="#111111"
     borderopacity="1"
     inkscape:showpageshadow="0"
     inkscape:pageopacity="0"
     inkscape:pagecheckerboard="1"
     inkscape:deskcolor="#d1d1d1"
     showgrid="false"
     inkscape:zoom="1.03125"
     inkscape:cx="104.24242"
     inkscape:cy="257.45455"
     inkscape:window-width="1366"
     inkscape:window-height="712"
     inkscape:window-x="0"
     inkscape:window-y="0"
     inkscape:window-maximized="1"
     inkscape:current-layer="layer2" />
  <defs
     id="defs2">
    <linearGradient
       id="3">
      <stop
         style="stop-color:#c56cf0;stop-opacity:1;"
         offset="0.14678736"
         id="stop1559" />
      <stop
         style="stop-color:#ffffff;stop-opacity:0.50588232;"
         offset="0.50607127"
         id="stop915" />
      <stop
         style="stop-color:#c56cf0;stop-opacity:1;"
         offset="0.92422688"
         id="stop1561" />
    </linearGradient>
    <linearGradient
       xlink:href="#3"
       id="linearGradient1573"
       gradientUnits="userSpaceOnUse"
       x1="101.20312"
       y1="255.77049"
       x2="410.86523"
       y2="255.77049"
       gradientTransform="matrix(1.6607557,0,0,1.6607557,-168.63692,-168.4627)" />
  </defs>
  <g
     id="layer2">
    <path
       id="path1295"
       style="mix-blend-mode:normal;fill:url(#linearGradient1573);fill-opacity:1;stroke:none;stroke-width:4.98226;stroke-linecap:round;stroke-linejoin:round;stroke-miterlimit:4;stroke-dasharray:none;stroke-opacity:1"
       d="M 256.57496,3.3249696 A 252.98393,252.98393 0 0 0 3.5886396,256.31128 252.98393,252.98393 0 0 0 256.57496,509.29435 252.98393,252.98393 0 0 0 509.55802,256.31128 252.98393,252.98393 0 0 0 256.57496,3.3249696 Z m 0,64.3997104 A 188.58668,188.58668 0 0 1 445.16157,256.31128 188.58668,188.58668 0 0 1 256.57496,444.8979 188.58668,188.58668 0 0 1 67.98835,256.31128 188.58668,188.58668 0 0 1 256.57496,67.72468 Z" />
  </g>
</svg>
